<svg width="14" height="10" viewBox="0 0 14 10" fill="none" xmlns="http://www.w3.org/2000/svg">
<g clip-path="url(#clip0_815_178)">
<path d="M7.00002 7.00005C8.15982 7.00005 9.10002 6.05985 9.10002 4.90005C9.10002 3.74025 8.15982 2.80005 7.00002 2.80005C5.84023 2.80005 4.90002 3.74025 4.90002 4.90005C4.90002 6.05985 5.84023 7.00005 7.00002 7.00005Z" fill="white"/>
<path d="M7 0C3.85 0 1.19 2.03 0 4.9C1.19 7.77 3.92 9.8 7 9.8C10.08 9.8 12.81 7.77 14 4.9C12.81 2.03 10.15 0 7 0ZM7 8.4C5.04 8.4 3.5 6.86 3.5 4.9C3.5 2.94 5.04 1.4 7 1.4C8.96 1.4 10.5 2.94 10.5 4.9C10.5 6.86 8.96 8.4 7 8.4Z" fill="white"/>
</g>
<defs>
<clipPath id="clip0_815_178">
<rect width="14" height="9.8" fill="white"/>
</clipPath>
</defs>
</svg>
